<?xml version="1.0" standalone="no"?>
<!DOCTYPE svg PUBLIC "-//W3C//DTD SVG 20010904//EN"
 "http://www.w3.org/TR/2001/REC-SVG-20010904/DTD/svg10.dtd">
<svg version="1.0" xmlns="http://www.w3.org/2000/svg"
 width="256.000000pt" height="256.000000pt" viewBox="0 0 256.000000 256.000000"
 preserveAspectRatio="xMidYMid meet">
<metadata>
Created by potrace 1.11, written by Peter Selinger 2001-2013
</metadata>
<g transform="translate(0.000000,256.000000) scale(0.100000,-0.100000)"
fill="#000000" stroke="none">
<path d="M220 2543 c-82 -28 -159 -100 -198 -183 -16 -32 -17 -127 -17 -1075
l0 -1040 26 -55 c31 -66 90 -127 155 -160 l49 -25 1045 0 1045 0 45 24 c89 47
145 110 173 195 15 43 17 152 17 1047 0 654 -3 1015 -10 1045 -22 97 -113 194
-214 228 -44 14 -151 16 -1060 15 -887 -1 -1017 -3 -1056 -16z"/>
</g>
</svg>
