<?xml version="1.0" encoding="utf-8"?>
<!-- Generator: Adobe Illustrator 21.0.2, SVG Export Plug-In . SVG Version: 6.00 Build 0)  -->
<svg version="1.1" id="black" xmlns="http://www.w3.org/2000/svg" xmlns:xlink="http://www.w3.org/1999/xlink" x="0px" y="0px"
	 viewBox="0 0 275 70" style="enable-background:new 0 0 275 70;" xml:space="preserve">
<style type="text/css">
	.st0{fill:#007AFF;}
</style>
<title>GA_Bitmaker_Final_Small_Cog</title>
<path d="M207.7,58.1l-1.2-5.3h-3l2.9,8.7v5.9h2.9v-5.9l2.8-8.7h-3l-1.1,5.3H207.7z M204.8,67.4v-2.7h-3.6V52.8h-2.9v14.6H204.8z
	 M195.4,59.6c0.3-0.1,0.5-0.2,0.7-0.4c0.2-0.2,0.4-0.4,0.5-0.7c0.1-0.3,0.2-0.5,0.3-0.8c0.1-0.3,0.1-0.6,0.1-0.9
	c0.1-1.1-0.3-2.2-1-3c-0.8-0.7-1.8-1.1-2.9-1h-3.3v14.5h3.2c1.1,0.1,2.2-0.3,3.1-1.1c0.8-1,1.1-2.2,1-3.4c0-0.3,0-0.7-0.1-1
	c-0.1-0.3-0.1-0.6-0.3-0.9c-0.1-0.3-0.3-0.5-0.5-0.7C196,60,195.7,59.8,195.4,59.6L195.4,59.6z M194.4,63.6c0,0.2-0.1,0.4-0.2,0.6
	c-0.1,0.2-0.2,0.3-0.4,0.4c-0.2,0.1-0.4,0.2-0.6,0.2h-0.6V61h0.6c0.3,0,0.7,0.1,0.9,0.4c0.2,0.4,0.3,0.8,0.3,1.2
	C194.4,62.9,194.4,63.3,194.4,63.6 M193.1,58.4h-0.5v-3.1h0.4c0.4,0,0.7,0.1,1,0.3c0.2,0.2,0.3,0.6,0.3,1.4
	C194.3,57.9,193.9,58.4,193.1,58.4 M184.1,64.5l1.3-5.3h0.2v8.2h2.9V52.8h-2.8l-1.4,3.8l-1,3h-0.1l-1-2.9l-1.4-3.9H178v14.6h2.9
	v-8.2h0.2l1.4,5.4L184.1,64.5z M177.2,67.4v-2.7h-3.9v-3.3h3.4v-2.7h-3.4v-3.1h3.8v-2.7h-6.7v14.6H177.2z M169.2,61.6
	c-0.1-0.4-0.2-0.8-0.4-1.2c-0.2-0.4-0.5-0.7-0.9-1c-0.5-0.3-1-0.6-1.6-0.8c-0.3-0.1-0.6-0.3-0.9-0.4c-0.2-0.1-0.4-0.2-0.5-0.4
	c-0.1-0.1-0.2-0.3-0.2-0.4c0-0.2,0-0.3,0-0.5c0-0.2,0-0.3,0-0.5c0-0.2,0.1-0.3,0.1-0.4c0.1-0.1,0.2-0.2,0.3-0.3
	c0.1-0.1,0.3-0.2,0.5-0.1c0.2,0,0.3,0,0.5,0.1c0.1,0.1,0.2,0.2,0.3,0.3c0.1,0.2,0.1,0.3,0.1,0.5c0,0.2,0,0.4,0,0.6l2.8-0.6
	c0-0.4-0.1-0.8-0.2-1.3c-0.1-0.4-0.3-0.8-0.6-1.2c-0.3-0.4-0.7-0.7-1.1-0.9c-0.6-0.3-1.2-0.4-1.8-0.3c-0.6,0-1.2,0.1-1.8,0.3
	c-0.5,0.2-0.9,0.5-1.2,0.9c-0.3,0.4-0.5,0.8-0.7,1.3c-0.1,0.5-0.2,1.1-0.2,1.7c0,0.4,0,0.9,0.1,1.3c0.1,0.4,0.2,0.8,0.4,1.1
	c0.3,0.4,0.6,0.7,1,1c0.5,0.4,1.1,0.7,1.7,0.9c0.2,0.1,0.5,0.2,0.7,0.3c0.2,0.1,0.3,0.2,0.4,0.4c0.1,0.1,0.2,0.3,0.2,0.5
	c0,0.2,0.1,0.5,0.1,0.7c0,0.2,0,0.4,0,0.6c0,0.2-0.1,0.4-0.1,0.5c-0.1,0.1-0.1,0.3-0.3,0.4c-0.4,0.3-1,0.2-1.2-0.2c0,0,0,0,0,0
	c-0.2-0.4-0.2-0.8-0.2-1.2l-2.9,0.5c0,0.5,0.1,1,0.2,1.5c0.1,0.4,0.4,0.9,0.7,1.2c0.3,0.4,0.7,0.6,1.2,0.8c0.6,0.2,1.1,0.3,1.7,0.3
	c0.6,0,1.3-0.1,1.8-0.3c0.5-0.2,0.9-0.5,1.2-0.9c0.3-0.4,0.5-0.9,0.6-1.4c0.1-0.6,0.2-1.2,0.2-1.8C169.4,62.5,169.3,62,169.2,61.6
	 M160.8,61.5c-0.1-0.4-0.2-0.8-0.4-1.2c-0.2-0.4-0.5-0.7-0.9-1c-0.5-0.3-1-0.6-1.6-0.8c-0.3-0.1-0.6-0.3-0.9-0.4
	c-0.2-0.1-0.4-0.2-0.5-0.4c-0.1-0.1-0.2-0.3-0.2-0.4c0-0.2,0-0.3,0-0.5c0-0.2,0-0.3,0-0.5c0-0.2,0.1-0.3,0.1-0.4
	c0-0.1,0.1-0.2,0.2-0.3c0.1-0.1,0.3-0.1,0.5-0.1c0.2,0,0.3,0,0.5,0.1c0.1,0.1,0.2,0.2,0.3,0.3c0.1,0.2,0.1,0.3,0.1,0.5
	c0,0.2,0,0.4,0,0.6l2.8-0.6c0-0.4-0.1-0.8-0.2-1.3c-0.1-0.4-0.3-0.8-0.6-1.2c-0.3-0.4-0.7-0.7-1.1-0.9c-0.6-0.3-1.2-0.4-1.8-0.3
	c-0.6,0-1.2,0.1-1.8,0.3c-0.5,0.2-0.9,0.5-1.2,0.9c-0.3,0.4-0.5,0.8-0.7,1.3c-0.1,0.5-0.2,1.1-0.2,1.7c0,0.4,0,0.9,0.1,1.3
	c0.1,0.4,0.2,0.8,0.4,1.1c0.3,0.4,0.6,0.7,1,1c0.5,0.4,1.1,0.7,1.7,0.9c0.2,0.1,0.5,0.2,0.7,0.3c0.2,0.1,0.3,0.2,0.4,0.4
	c0.1,0.1,0.2,0.3,0.2,0.5c0,0.2,0.1,0.5,0.1,0.7c0,0.2,0,0.4,0,0.6c0,0.2-0.1,0.4-0.1,0.5c-0.1,0.1-0.2,0.3-0.3,0.4
	c-0.4,0.3-1,0.2-1.2-0.2c0,0,0,0,0,0c-0.2-0.4-0.2-0.8-0.2-1.2l-2.9,0.5c0,0.5,0.1,1,0.2,1.5c0.1,0.4,0.4,0.9,0.7,1.2
	c0.3,0.4,0.7,0.6,1.2,0.8c0.6,0.2,1.1,0.3,1.7,0.3c0.6,0,1.3-0.1,1.8-0.3c0.5-0.2,0.9-0.5,1.2-0.9c0.3-0.4,0.5-0.9,0.6-1.4
	c0.1-0.6,0.2-1.2,0.2-1.8C160.9,62.6,160.8,62.1,160.8,61.5 M148.3,56.6h0.1l0.3,3l0.3,2.3h-1.4l0.3-2.4L148.3,56.6z M149.9,67.4h3
	l-2.8-14.6h-3.5l-2.8,14.6h3l0.4-2.8h2.1L149.9,67.4z M140.1,67.4v-2.7h-3.9V52.8h-2.9v14.6L140.1,67.4z M128.1,56.6h0.1l0.3,3
	l0.3,2.3h-1.3l0.2-2.4L128.1,56.6z M129.6,67.4h3l-2.8-14.6h-3.5l-2.8,14.6h3l0.4-2.8h2.1L129.6,67.4z M119,55.5
	c0.4,0,0.8,0.1,1.1,0.4c0.3,0.3,0.5,0.8,0.4,1.2c0,0.3,0,0.6-0.1,0.9c-0.1,0.2-0.2,0.4-0.4,0.6c-0.1,0.1-0.3,0.2-0.5,0.3
	c-0.2,0-0.4,0.1-0.6,0.1h-0.4v-3.4H119z M115.7,52.8v14.6h2.9v-5.7h0.6l1.7,5.7h2.9l-2.1-6.3c0.5-0.4,1-0.9,1.2-1.5
	c0.3-0.8,0.4-1.6,0.4-2.4c0-0.7-0.1-1.4-0.3-2c-0.2-0.5-0.5-1-0.9-1.3c-0.4-0.3-0.8-0.6-1.3-0.7c-0.5-0.2-1.1-0.2-1.7-0.2H115.7z
	 M114.7,67.4v-2.7h-3.8v-3.3h3.3v-2.7h-3.3v-3.1h3.8v-2.7H108v14.6H114.7z M103.6,60.4l-2.7-7.6h-2.5v14.6h2.8v-7.7h0.1l2.7,7.7h2.4
	V52.8h-2.8v7.6L103.6,60.4z M97.4,67.4v-2.7h-3.8v-3.3h3.3v-2.7h-3.3v-3.1h3.8v-2.7h-6.7v14.6H97.4z M82.9,53.7
	c-0.7,0.8-1,1.8-1,2.8v7.3c-0.1,1,0.2,2,0.9,2.8c0.8,0.7,1.8,1,2.9,0.9c1,0.1,2-0.3,2.7-0.9c0.7-0.7,1.1-1.7,1-2.7v-4.6h-3.6v2.5
	h0.8V64c0,0.2-0.1,0.4-0.3,0.6c-0.2,0.2-0.5,0.2-0.7,0.2c-0.4,0-0.7-0.1-0.8-0.3c-0.1-0.2-0.1-0.4-0.1-0.6v-7.4c0-0.1,0-0.2,0-0.3
	c0-0.1,0.1-0.3,0.1-0.4c0.1-0.1,0.2-0.2,0.3-0.3c0.1-0.1,0.3-0.1,0.5-0.1c0.3,0,0.6,0.2,0.7,0.4c0.2,0.3,0.3,0.7,0.3,1.1l2.8-0.5
	c0-0.5,0-1-0.1-1.5c-0.1-0.4-0.4-0.9-0.7-1.2c-0.3-0.3-0.7-0.6-1.2-0.8c-0.5-0.2-1.1-0.3-1.7-0.3C84.6,52.6,83.6,53,82.9,53.7"/>
<path d="M65.8,35c0-2.3,1.9-4.2,4.2-4.2l-1-5.2c-2.2,0.9-4.7-0.1-5.6-2.3c-0.9-2.2,0.1-4.7,2.3-5.6l-3-4.4c-1.7,1.7-4.3,1.7-6,0
	s-1.7-4.3,0-6l-4.4-3c-0.8,2.2-3.3,3.3-5.4,2.5c-2.2-0.8-3.3-3.3-2.5-5.4c0-0.1,0.1-0.2,0.1-0.3l-5.2-1c0,2.3-1.9,4.2-4.2,4.2
	c-2.3,0-4.2-1.9-4.2-4.2c0,0,0,0,0,0l-5.2,1c0.7,2.2-0.6,4.6-2.9,5.3c-1.9,0.6-4-0.3-4.9-2l-4.4,3c1.7,1.7,1.7,4.3,0,6s-4.3,1.7-6,0
	l-3,4.4c2.1,1.1,2.8,3.7,1.7,5.8c-0.9,1.7-3,2.6-4.9,2l-1,5.2c2.3,0,4.2,1.9,4.2,4.2c0,2.3-1.9,4.2-4.2,4.2l0,0l1,5.2
	c2.2-0.9,4.6,0.1,5.5,2.3s-0.1,4.6-2.3,5.5l3,4.4c1.7-1.7,4.3-1.7,6,0s1.7,4.3,0,6l4.4,3c1-2.1,3.5-3.1,5.6-2.1c2,0.9,3,3.2,2.2,5.3
	l5.2,1c0-2.3,1.9-4.2,4.2-4.2c2.3,0,4.2,1.9,4.2,4.2l5.2-1c-0.8-2.2,0.3-4.6,2.5-5.4c2.1-0.8,4.4,0.2,5.3,2.2l4.4-3
	c-1.7-1.7-1.7-4.3,0-6s4.3-1.7,6,0l3-4.4c-2.3-0.6-3.6-2.9-3-5.2c0.6-2.3,2.9-3.6,5.2-3c0.3,0.1,0.6,0.2,0.9,0.4l1-5.2
	C67.6,39.3,65.7,37.3,65.8,35C65.8,35,65.8,35,65.8,35z M32.9,28h-5.6v-6.1c0-0.2,0-0.5-0.1-0.7c0-0.3-0.1-0.5-0.3-0.7
	c-0.1-0.2-0.3-0.4-0.5-0.6c-0.3-0.2-0.6-0.2-0.9-0.2h-0.1c-0.3,0-0.6,0.1-0.9,0.2c-0.2,0.1-0.4,0.3-0.5,0.6
	c-0.1,0.2-0.2,0.5-0.3,0.7c-0.1,0.2-0.1,0.5-0.1,0.7v26.8c0,0.4,0.1,0.8,0.3,1.1c0.2,0.4,0.6,0.5,1.3,0.5c0.5,0,0.9-0.1,1.3-0.4
	c0.3-0.3,0.5-0.7,0.5-1.1V41h-1.2v-4.9h6.8v12.4c0.1,2-0.5,3.9-1.9,5.4c-1.5,1.3-3.4,2-5.3,1.8c-2.6,0-4.4-0.6-5.6-1.8
	c-1.3-1.5-1.9-3.5-1.8-5.5V21.9c-0.1-2,0.6-4,1.9-5.5c1.4-1.5,3.5-2.2,5.5-2.1c2-0.1,4.1,0.6,5.5,2.1c1.3,1.5,2,3.5,1.9,5.5L32.9,28
	z M46,55.5l-1.3-9.9h-3.4l-1.3,9.9h-5.9l5.4-40.9h6.8l5.4,40.9L46,55.5z"/>
<ellipse cx="43.1" cy="37.8" rx="3.1" ry="3.1"/>
<path class="st0" d="M98.7,23c0.9,0.3,1.8,0.8,2.4,1.4c0.6,0.6,1.2,1.3,1.6,2.1c0.4,0.8,0.7,1.7,0.8,2.6c0.2,1,0.3,1.9,0.2,2.9
	c0,4.6-1,8-3,10.2s-5,3.3-9.1,3.3h-9.6V2.5h9.7c3.8,0,6.7,1,8.6,3s2.9,5,2.9,9c0,0.9-0.1,1.7-0.3,2.6c-0.2,0.8-0.5,1.6-0.8,2.4
	c-0.4,0.7-0.9,1.4-1.5,2c-0.6,0.6-1.3,1-2.1,1.3L98.7,23z M95.3,14.7c0-1.7-0.3-2.8-0.9-3.4c-0.9-0.6-1.9-0.9-3-0.8h-0.9v8.6h1.1
	C94.1,19.1,95.3,17.6,95.3,14.7L95.3,14.7z M95.7,31.6c0.1-1.3-0.2-2.6-0.9-3.7c-0.7-0.7-1.7-1.1-2.7-1.1h-1.6v10.6H92
	c0.7,0,1.3-0.1,1.9-0.5c0.5-0.3,0.9-0.8,1.1-1.3c0.3-0.6,0.5-1.2,0.5-1.9C95.6,33.1,95.7,32.4,95.7,31.6z"/>
<path class="st0" d="M107.7,45.6V2.5h8.4v43.1H107.7z"/>
<path class="st0" d="M133.9,10.5v35.1h-8.4V10.5h-6.6V2.5h21.7v8.1H133.9z"/>
<path class="st0" d="M155.6,37.2l-1.8-5.5l-2-6.4h-0.3v20.3h-8.4V2.5h7.9l4.3,11.5l2.9,8.5h0.4l3-8.7l4.2-11.4h7.9v43.2h-8.4V25.5
	h-0.2l-2,6.7l-1.7,5L155.6,37.2z"/>
<path class="st0" d="M191,37.2h-6.4l-1.3,8.4h-8.9l8.2-43.2h10.3l8.2,43.2h-8.9L191,37.2z M186.8,22.4l-0.9,6.9h3.9l-0.8-6.9
	l-0.9-8.7h-0.4L186.8,22.4z"/>
<path class="st0" d="M210.9,15.8l5.9-13.3h9l-9,17.9l9.9,25.3H218l-6-16.5l-1.5,3.9v12.6H202V2.5h8.4v13.3H210.9z"/>
<path class="st0" d="M228.2,45.6V2.5H248v8.1h-11.3v9.2h9.9v8.1h-9.9v9.8H248v8.1L228.2,45.6z"/>
<path class="st0" d="M261.5,2.5c1.7,0,3.3,0.2,4.9,0.6c1.4,0.4,2.8,1.1,3.8,2.2c1.1,1.1,2,2.5,2.5,4c0.6,1.9,1,4,0.9,6
	c0.1,2.5-0.3,4.9-1.2,7.2c-0.7,1.8-2,3.4-3.6,4.5l6.2,18.7h-8.6l-5.1-16.8h-1.7v16.8h-8.4V2.5H261.5z M259.7,10.5v10.2h1.3
	c0.6,0,1.2-0.1,1.7-0.2c0.6-0.2,1.1-0.4,1.5-0.8c0.5-0.5,0.8-1,1-1.6c0.3-0.9,0.4-1.8,0.4-2.7c0.1-1.3-0.3-2.6-1.2-3.6
	c-0.8-0.8-2-1.2-3.1-1.1H259.7z"/>
<path d="M220.9,55.5v11.8H218V55.5h-2.2v-2.7h7.3v2.7H220.9z"/>
<path d="M231.4,63.8c0.1,1-0.3,2-0.9,2.8c-0.8,0.7-1.8,1-2.8,0.9c-2.5,0-3.7-1.2-3.7-3.7v-7.5c-0.1-1,0.3-2,1-2.8
	c1.7-1.2,3.9-1.2,5.5,0c0.7,0.8,1,1.8,0.9,2.8L231.4,63.8z M228.5,56.2c0.1-0.4-0.2-0.8-0.6-0.9c-0.1,0-0.1,0-0.2,0
	c-0.2,0-0.4,0.1-0.6,0.2c-0.2,0.2-0.3,0.4-0.2,0.7v7.7c0,0.3,0.1,0.5,0.2,0.7c0.2,0.1,0.4,0.2,0.6,0.2c0.2,0,0.4-0.1,0.6-0.2
	c0.2-0.2,0.3-0.4,0.2-0.7L228.5,56.2z"/>
<path d="M236.2,52.8c0.6,0,1.1,0.1,1.6,0.2c0.5,0.1,0.9,0.4,1.3,0.7c0.4,0.4,0.7,0.8,0.9,1.3c0.2,0.6,0.3,1.3,0.3,2
	c0,0.8-0.1,1.6-0.4,2.4c-0.3,0.6-0.7,1.1-1.2,1.5l2.1,6.3h-2.9l-1.7-5.7h-0.6v5.7h-2.9V52.8H236.2z M235.6,55.5V59h0.4
	c0.2,0,0.4,0,0.6-0.1c0.2-0.1,0.4-0.1,0.5-0.3c0.2-0.2,0.3-0.3,0.3-0.6c0.1-0.3,0.1-0.6,0.1-0.9c0-0.4-0.1-0.9-0.4-1.2
	c-0.3-0.3-0.7-0.4-1.1-0.4L235.6,55.5z"/>
<path d="M248.8,63.8c0.1,1-0.3,2-0.9,2.8c-0.8,0.7-1.8,1-2.8,0.9c-2.5,0-3.7-1.2-3.7-3.7v-7.5c-0.1-1,0.3-2,1-2.8
	c1.7-1.2,3.9-1.2,5.5,0c0.7,0.8,1,1.8,0.9,2.8L248.8,63.8z M245.9,56.2c0.1-0.4-0.2-0.8-0.6-0.9c-0.1,0-0.1,0-0.2,0
	c-0.2,0-0.4,0.1-0.6,0.2c-0.2,0.2-0.3,0.4-0.2,0.7v7.7c0,0.3,0.1,0.5,0.2,0.7c0.2,0.1,0.4,0.2,0.6,0.2c0.2,0,0.4-0.1,0.6-0.2
	c0.2-0.2,0.3-0.4,0.2-0.7V56.2z"/>
<path d="M255.4,59.7v-6.9h2.8v14.5h-2.4l-1.7-4.2l-1-2.8H253v7h-2.8V52.8h2.5l1.7,4.2L255.4,59.7L255.4,59.7z"/>
<path d="M264.1,55.5v11.8h-2.8V55.5H259v-2.7h7.3v2.7H264.1z"/>
<path d="M274.7,63.8c0.1,1-0.3,2-0.9,2.8c-0.8,0.7-1.8,1-2.8,0.9c-2.5,0-3.7-1.2-3.7-3.7v-7.5c-0.1-1,0.3-2,1-2.8
	c1.7-1.2,3.9-1.2,5.5,0c0.7,0.8,1,1.8,0.9,2.8L274.7,63.8z M271.8,56.2c0.1-0.4-0.2-0.8-0.6-0.9c-0.1,0-0.1,0-0.2,0
	c-0.2,0-0.4,0.1-0.6,0.2c-0.2,0.2-0.3,0.4-0.2,0.7v7.7c0,0.3,0.1,0.5,0.2,0.7c0.2,0.1,0.4,0.2,0.6,0.2c0.2,0,0.4-0.1,0.6-0.2
	c0.2-0.2,0.3-0.4,0.2-0.7V56.2z"/>
</svg>
