<svg xmlns="http://www.w3.org/2000/svg" width="189" height="48" viewBox="0 0 189 48">
  <g fill="#8D8D8D" transform="translate(.336)">
    <path d="M142.422857 39.84L141.6 36.2057143 139.542857 36.2057143 141.531429 42.1714286 141.531429 46.2171429 143.52 46.2171429 143.52 42.1714286 145.44 36.2057143 143.382857 36.2057143 142.628571 39.84 142.422857 39.84 142.422857 39.84zM140.434286 46.2171429L140.434286 44.3657143 137.965714 44.3657143 137.965714 36.2057143 135.977143 36.2057143 135.977143 46.2171429 140.434286 46.2171429 140.434286 46.2171429zM133.988571 40.8685714C134.194286 40.8 134.331429 40.7314286 134.468571 40.5942857 134.605714 40.4571429 134.742857 40.32 134.811429 40.1142857 134.88 39.9085714 134.948571 39.7714286 135.017143 39.5657143 135.085714 39.36 135.085714 39.1542857 135.085714 38.9485714 135.154286 38.1942857 134.88 37.44 134.4 36.8914286 133.851429 36.4114286 133.165714 36.1371429 132.411429 36.2057143L130.148571 36.2057143 130.148571 46.1485714 132.342857 46.1485714C133.097143 46.2171429 133.851429 45.9428571 134.468571 45.3942857 135.017143 44.7085714 135.222857 43.8857143 135.154286 43.0628571 135.154286 42.8571429 135.154286 42.5828571 135.085714 42.3771429 135.017143 42.1714286 135.017143 41.9657143 134.88 41.76 134.811429 41.5542857 134.674286 41.4171429 134.537143 41.28 134.4 41.1428571 134.194286 41.0057143 133.988571 40.8685714L133.988571 40.8685714zM133.302857 43.6114286C133.302857 43.7485714 133.234286 43.8857143 133.165714 44.0228571 133.097143 44.16 133.028571 44.2285714 132.891429 44.2971429 132.754286 44.3657143 132.617143 44.4342857 132.48 44.4342857L132.068571 44.4342857 132.068571 41.8285714 132.48 41.8285714C132.685714 41.8285714 132.96 41.8971429 133.097143 42.1028571 133.234286 42.3771429 133.302857 42.6514286 133.302857 42.9257143 133.302857 43.1314286 133.302857 43.4057143 133.302857 43.6114286L133.302857 43.6114286zM132.411429 40.0457143L132.068571 40.0457143 132.068571 37.92 132.342857 37.92C132.617143 37.92 132.822857 37.9885714 133.028571 38.1257143 133.165714 38.2628571 133.234286 38.5371429 133.234286 39.0857143 133.234286 39.7028571 132.96 40.0457143 132.411429 40.0457143L132.411429 40.0457143zM126.24 44.2285714L127.131429 40.5942857 127.268571 40.5942857 127.268571 46.2171429 129.257143 46.2171429 129.257143 36.2057143 127.337143 36.2057143 126.377143 38.8114286 125.691429 40.8685714 125.622857 40.8685714 124.937143 38.88 123.977143 36.2057143 122.057143 36.2057143 122.057143 46.2171429 124.045714 46.2171429 124.045714 40.5942857 124.182857 40.5942857 125.142857 44.2971429 126.24 44.2285714zM121.508571 46.2171429L121.508571 44.3657143 118.834286 44.3657143 118.834286 42.1028571 121.165714 42.1028571 121.165714 40.2514286 118.834286 40.2514286 118.834286 38.1257143 121.44 38.1257143 121.44 36.2742857 116.845714 36.2742857 116.845714 46.2857143 121.508571 46.2857143 121.508571 46.2171429zM116.022857 42.24C115.954286 41.9657143 115.885714 41.6914286 115.748571 41.4171429 115.611429 41.1428571 115.405714 40.9371429 115.131429 40.7314286 114.788571 40.5257143 114.445714 40.32 114.034286 40.1828571 113.828571 40.1142857 113.622857 39.9771429 113.417143 39.9085714 113.28 39.84 113.142857 39.7714286 113.074286 39.6342857 113.005714 39.5657143 112.937143 39.4285714 112.937143 39.36 112.937143 39.2228571 112.937143 39.1542857 112.937143 39.0171429 112.937143 38.88 112.937143 38.8114286 112.937143 38.6742857 112.937143 38.5371429 113.005714 38.4685714 113.005714 38.4 113.074286 38.3314286 113.142857 38.2628571 113.211429 38.1942857 113.28 38.1257143 113.417143 38.0571429 113.554286 38.1257143 113.691429 38.1257143 113.76 38.1257143 113.897143 38.1942857 113.965714 38.2628571 114.034286 38.3314286 114.102857 38.4 114.171429 38.5371429 114.171429 38.6057143 114.171429 38.7428571 114.171429 38.88 114.171429 39.0171429 114.171429 39.1542857L116.091429 38.7428571C116.091429 38.4685714 116.022857 38.1942857 115.954286 37.8514286 115.885714 37.5771429 115.748571 37.3028571 115.542857 37.0285714 115.337143 36.7542857 115.062857 36.5485714 114.788571 36.4114286 114.377143 36.2057143 113.965714 36.1371429 113.554286 36.2057143 113.142857 36.2057143 112.731429 36.2742857 112.32 36.4114286 111.977143 36.5485714 111.702857 36.7542857 111.497143 37.0285714 111.291429 37.3028571 111.154286 37.5771429 111.017143 37.92 110.948571 38.2628571 110.88 38.6742857 110.88 39.0857143 110.88 39.36 110.88 39.7028571 110.948571 39.9771429 111.017143 40.2514286 111.085714 40.5257143 111.222857 40.7314286 111.428571 41.0057143 111.634286 41.2114286 111.908571 41.4171429 112.251429 41.6914286 112.662857 41.8971429 113.074286 42.0342857 113.211429 42.1028571 113.417143 42.1714286 113.554286 42.24 113.691429 42.3085714 113.76 42.3771429 113.828571 42.5142857 113.897143 42.5828571 113.965714 42.72 113.965714 42.8571429 113.965714 42.9942857 114.034286 43.2 114.034286 43.3371429 114.034286 43.4742857 114.034286 43.6114286 114.034286 43.7485714 114.034286 43.8857143 113.965714 44.0228571 113.965714 44.0914286 113.897143 44.16 113.897143 44.2971429 113.76 44.3657143 113.485714 44.5714286 113.074286 44.5028571 112.937143 44.2285714 112.937143 44.2285714 112.937143 44.2285714 112.937143 44.2285714 112.8 43.9542857 112.8 43.68 112.8 43.4057143L110.811429 43.7485714C110.811429 44.0914286 110.88 44.4342857 110.948571 44.7771429 111.017143 45.0514286 111.222857 45.3942857 111.428571 45.6 111.634286 45.8742857 111.908571 46.0114286 112.251429 46.1485714 112.662857 46.2857143 113.005714 46.3542857 113.417143 46.3542857 113.828571 46.3542857 114.308571 46.2857143 114.651429 46.1485714 114.994286 46.0114286 115.268571 45.8057143 115.474286 45.5314286 115.68 45.2571429 115.817143 44.9142857 115.885714 44.5714286 115.954286 44.16 116.022857 43.7485714 116.022857 43.3371429 116.16 42.8571429 116.091429 42.5142857 116.022857 42.24L116.022857 42.24zM110.262857 42.1714286C110.194286 41.8971429 110.125714 41.6228571 109.988571 41.3485714 109.851429 41.0742857 109.645714 40.8685714 109.371429 40.6628571 109.028571 40.4571429 108.685714 40.2514286 108.274286 40.1142857 108.068571 40.0457143 107.862857 39.9085714 107.657143 39.84 107.52 39.7714286 107.382857 39.7028571 107.314286 39.5657143 107.245714 39.4971429 107.177143 39.36 107.177143 39.2914286 107.177143 39.1542857 107.177143 39.0857143 107.177143 38.9485714 107.177143 38.8114286 107.177143 38.7428571 107.177143 38.6057143 107.177143 38.4685714 107.245714 38.4 107.245714 38.3314286 107.245714 38.2628571 107.314286 38.1942857 107.382857 38.1257143 107.451429 38.0571429 107.588571 38.0571429 107.725714 38.0571429 107.862857 38.0571429 107.931429 38.0571429 108.068571 38.1257143 108.137143 38.1942857 108.205714 38.2628571 108.274286 38.3314286 108.342857 38.4685714 108.342857 38.5371429 108.342857 38.6742857 108.342857 38.8114286 108.342857 38.9485714 108.342857 39.0857143L110.262857 38.6742857C110.262857 38.4 110.194286 38.1257143 110.125714 37.7828571 110.057143 37.5085714 109.92 37.2342857 109.714286 36.96 109.508571 36.6857143 109.234286 36.48 108.96 36.3428571 108.548571 36.1371429 108.137143 36.0685714 107.725714 36.1371429 107.314286 36.1371429 106.902857 36.2057143 106.491429 36.3428571 106.148571 36.48 105.874286 36.6857143 105.668571 36.96 105.462857 37.2342857 105.325714 37.5085714 105.188571 37.8514286 105.12 38.1942857 105.051429 38.6057143 105.051429 39.0171429 105.051429 39.2914286 105.051429 39.6342857 105.12 39.9085714 105.188571 40.1828571 105.257143 40.4571429 105.394286 40.6628571 105.6 40.9371429 105.805714 41.1428571 106.08 41.3485714 106.422857 41.6228571 106.834286 41.8285714 107.245714 41.9657143 107.382857 42.0342857 107.588571 42.1028571 107.725714 42.1714286 107.862857 42.24 107.931429 42.3085714 108 42.4457143 108.068571 42.5142857 108.137143 42.6514286 108.137143 42.7885714 108.137143 42.9257143 108.205714 43.1314286 108.205714 43.2685714 108.205714 43.4057143 108.205714 43.5428571 108.205714 43.68 108.205714 43.8171429 108.137143 43.9542857 108.137143 44.0228571 108.068571 44.0914286 108 44.2285714 107.931429 44.2971429 107.657143 44.5028571 107.245714 44.4342857 107.108571 44.16 107.108571 44.16 107.108571 44.16 107.108571 44.16 106.971429 43.8857143 106.971429 43.6114286 106.971429 43.3371429L104.982857 43.68C104.982857 44.0228571 105.051429 44.3657143 105.12 44.7085714 105.188571 44.9828571 105.394286 45.3257143 105.6 45.5314286 105.805714 45.8057143 106.08 45.9428571 106.422857 46.08 106.834286 46.2171429 107.177143 46.2857143 107.588571 46.2857143 108 46.2857143 108.48 46.2171429 108.822857 46.08 109.165714 45.9428571 109.44 45.7371429 109.645714 45.4628571 109.851429 45.1885714 109.988571 44.8457143 110.057143 44.5028571 110.125714 44.0914286 110.194286 43.68 110.194286 43.2685714 110.331429 42.9257143 110.262857 42.5828571 110.262857 42.1714286L110.262857 42.1714286zM101.691429 38.8114286L101.76 38.8114286 101.965714 40.8685714 102.171429 42.4457143 101.211429 42.4457143 101.417143 40.8 101.691429 38.8114286zM102.788571 46.2171429L104.845714 46.2171429 102.925714 36.2057143 100.525714 36.2057143 98.6057143 46.2171429 100.662857 46.2171429 100.937143 44.2971429 102.377143 44.2971429 102.788571 46.2171429zM96.0685714 46.2171429L96.0685714 44.3657143 93.3942857 44.3657143 93.3942857 36.2057143 91.4057143 36.2057143 91.4057143 46.2171429 96.0685714 46.2171429zM87.84 38.8114286L87.9085714 38.8114286 88.1142857 40.8685714 88.32 42.4457143 87.4285714 42.4457143 87.5657143 40.8 87.84 38.8114286zM88.8685714 46.2171429L90.9257143 46.2171429 89.0057143 36.2057143 86.6057143 36.2057143 84.6857143 46.2171429 86.7428571 46.2171429 87.0171429 44.2971429 88.4571429 44.2971429 88.8685714 46.2171429zM81.6 38.0571429C81.8742857 38.0571429 82.1485714 38.1257143 82.3542857 38.3314286 82.56 38.5371429 82.6971429 38.88 82.6285714 39.1542857 82.6285714 39.36 82.6285714 39.5657143 82.56 39.7714286 82.4914286 39.9085714 82.4228571 40.0457143 82.2857143 40.1828571 82.2171429 40.2514286 82.08 40.32 81.9428571 40.3885714 81.8057143 40.3885714 81.6685714 40.4571429 81.5314286 40.4571429L81.2571429 40.4571429 81.2571429 38.1257143 81.6 38.1257143 81.6 38.0571429zM79.3371429 36.2057143L79.3371429 46.2171429 81.3257143 46.2171429 81.3257143 42.3085714 81.7371429 42.3085714 82.9028571 46.2171429 84.8914286 46.2171429 83.4514286 41.8971429C83.7942857 41.6228571 84.1371429 41.28 84.2742857 40.8685714 84.48 40.32 84.5485714 39.7714286 84.5485714 39.2228571 84.5485714 38.7428571 84.48 38.2628571 84.3428571 37.8514286 84.2057143 37.5085714 84 37.1657143 83.7257143 36.96 83.4514286 36.7542857 83.1771429 36.5485714 82.8342857 36.48 82.4914286 36.3428571 82.08 36.3428571 81.6685714 36.3428571L79.3371429 36.3428571 79.3371429 36.2057143zM78.6514286 46.2171429L78.6514286 44.3657143 76.0457143 44.3657143 76.0457143 42.1028571 78.3085714 42.1028571 78.3085714 40.2514286 76.0457143 40.2514286 76.0457143 38.1257143 78.6514286 38.1257143 78.6514286 36.2742857 74.0571429 36.2742857 74.0571429 46.2857143 78.6514286 46.2857143 78.6514286 46.2171429zM71.04 41.4171429L69.1885714 36.2057143 67.4742857 36.2057143 67.4742857 46.2171429 69.3942857 46.2171429 69.3942857 40.9371429 69.4628571 40.9371429 71.3142857 46.2171429 72.96 46.2171429 72.96 36.2057143 71.04 36.2057143 71.04 41.4171429 71.04 41.4171429zM66.7885714 46.2171429L66.7885714 44.3657143 64.1828571 44.3657143 64.1828571 42.1028571 66.4457143 42.1028571 66.4457143 40.2514286 64.1828571 40.2514286 64.1828571 38.1257143 66.7885714 38.1257143 66.7885714 36.2742857 62.1942857 36.2742857 62.1942857 46.2857143 66.7885714 46.2857143 66.7885714 46.2171429zM56.8457143 36.8228571C56.3657143 37.3714286 56.16 38.0571429 56.16 38.7428571L56.16 43.7485714C56.0914286 44.4342857 56.2971429 45.12 56.7771429 45.6685714 57.3257143 46.1485714 58.0114286 46.3542857 58.7657143 46.2857143 59.4514286 46.3542857 60.1371429 46.08 60.6171429 45.6685714 61.0971429 45.1885714 61.3714286 44.5028571 61.3028571 43.8171429L61.3028571 40.6628571 58.8342857 40.6628571 58.8342857 42.3771429 59.3828571 42.3771429 59.3828571 43.8857143C59.3828571 44.0228571 59.3142857 44.16 59.1771429 44.2971429 59.04 44.4342857 58.8342857 44.4342857 58.6971429 44.4342857 58.4228571 44.4342857 58.2171429 44.3657143 58.1485714 44.2285714 58.08 44.0914286 58.08 43.9542857 58.08 43.8171429L58.08 38.7428571C58.08 38.6742857 58.08 38.6057143 58.08 38.5371429 58.08 38.4685714 58.1485714 38.3314286 58.1485714 38.2628571 58.2171429 38.1942857 58.2857143 38.1257143 58.3542857 38.0571429 58.4228571 37.9885714 58.56 37.9885714 58.6971429 37.9885714 58.9028571 37.9885714 59.1085714 38.1257143 59.1771429 38.2628571 59.3142857 38.4685714 59.3828571 38.7428571 59.3828571 39.0171429L61.3028571 38.6742857C61.3028571 38.3314286 61.3028571 37.9885714 61.2342857 37.6457143 61.1657143 37.3714286 60.96 37.0285714 60.7542857 36.8228571 60.5485714 36.6171429 60.2742857 36.4114286 59.9314286 36.2742857 59.5885714 36.1371429 59.1771429 36.0685714 58.7657143 36.0685714 58.0114286 36.0685714 57.3257143 36.3428571 56.8457143 36.8228571L56.8457143 36.8228571zM45.12 24C45.12 22.4228571 46.4228571 21.12 48 21.12L47.3142857 17.5542857C45.8057143 18.1714286 44.0914286 17.4857143 43.4742857 15.9771429 42.8571429 14.4685714 43.5428571 12.7542857 45.0514286 12.1371429L42.9942857 9.12C41.8285714 10.2857143 40.0457143 10.2857143 38.88 9.12 37.7142857 7.95428571 37.7142857 6.17142857 38.88 5.00571429L35.8628571 2.94857143C35.3142857 4.45714286 33.6 5.21142857 32.16 4.66285714 30.6514286 4.11428571 29.8971429 2.4 30.4457143.96 30.4457143.891428571 30.5142857.822857143 30.5142857.754285714L26.9485714.0685714286C26.9485714 1.64571429 25.6457143 2.94857143 24.0685714 2.94857143 22.4914286 2.94857143 21.1885714 1.64571429 21.1885714.0685714286 21.1885714.0685714286 21.1885714.0685714286 21.1885714.0685714286L17.6228571.754285714C18.1028571 2.26285714 17.2114286 3.90857143 15.6342857 4.38857143 14.3314286 4.8 12.8914286 4.18285714 12.2742857 3.01714286L9.25714286 5.07428571C10.4228571 6.24 10.4228571 8.02285714 9.25714286 9.18857143 8.09142857 10.3542857 6.30857143 10.3542857 5.14285714 9.18857143L3.08571429 12.2057143C4.52571429 12.96 5.00571429 14.7428571 4.25142857 16.1828571 3.63428571 17.3485714 2.19428571 17.9657143.891428571 17.5542857L.205714286 21.12C1.78285714 21.12 3.08571429 22.4228571 3.08571429 24 3.08571429 25.5771429 1.78285714 26.88.205714286 26.88L.205714286 26.88.891428571 30.4457143C2.4 29.8285714 4.04571429 30.5142857 4.66285714 32.0228571 5.28 33.5314286 4.59428571 35.1771429 3.08571429 35.7942857L5.14285714 38.8114286C6.30857143 37.6457143 8.09142857 37.6457143 9.25714286 38.8114286 10.4228571 39.9771429 10.4228571 41.76 9.25714286 42.9257143L12.2742857 44.9828571C12.96 43.5428571 14.6742857 42.8571429 16.1142857 43.5428571 17.4857143 44.16 18.1714286 45.7371429 17.6228571 47.1771429L21.1885714 47.8628571C21.1885714 46.2857143 22.4914286 44.9828571 24.0685714 44.9828571 25.6457143 44.9828571 26.9485714 46.2857143 26.9485714 47.8628571L30.5142857 47.1771429C29.9657143 45.6685714 30.72 44.0228571 32.2285714 43.4742857 33.6685714 42.9257143 35.2457143 43.6114286 35.8628571 44.9828571L38.88 42.9257143C37.7142857 41.76 37.7142857 39.9771429 38.88 38.8114286 40.0457143 37.6457143 41.8285714 37.6457143 42.9942857 38.8114286L45.0514286 35.7942857C43.4742857 35.3828571 42.5828571 33.8057143 42.9942857 32.2285714 43.4057143 30.6514286 44.9828571 29.76 46.56 30.1714286 46.7657143 30.24 46.9714286 30.3085714 47.1771429 30.4457143L47.8628571 26.88C46.3542857 26.9485714 45.0514286 25.5771429 45.12 24 45.12 24 45.12 24 45.12 24zM22.56 19.2L18.72 19.2 18.72 15.0171429C18.72 14.88 18.72 14.6742857 18.6514286 14.5371429 18.6514286 14.3314286 18.5828571 14.1942857 18.4457143 14.0571429 18.3771429 13.92 18.24 13.7828571 18.1028571 13.6457143 17.8971429 13.5085714 17.6914286 13.5085714 17.4857143 13.5085714L17.4171429 13.5085714C17.2114286 13.5085714 17.0057143 13.5771429 16.8 13.6457143 16.6628571 13.7142857 16.5257143 13.8514286 16.4571429 14.0571429 16.3885714 14.1942857 16.32 14.4 16.2514286 14.5371429 16.1828571 14.6742857 16.1828571 14.88 16.1828571 15.0171429L16.1828571 33.3942857C16.1828571 33.6685714 16.2514286 33.9428571 16.3885714 34.1485714 16.5257143 34.4228571 16.8 34.4914286 17.28 34.4914286 17.6228571 34.4914286 17.8971429 34.4228571 18.1714286 34.2171429 18.3771429 34.0114286 18.5142857 33.7371429 18.5142857 33.4628571L18.5142857 28.1142857 17.6914286 28.1142857 17.6914286 24.7542857 22.3542857 24.7542857 22.3542857 33.2571429C22.4228571 34.6285714 22.0114286 35.9314286 21.0514286 36.96 20.0228571 37.8514286 18.72 38.3314286 17.4171429 38.1942857 15.6342857 38.1942857 14.4 37.7828571 13.5771429 36.96 12.6857143 35.9314286 12.2742857 34.56 12.3428571 33.1885714L12.3428571 15.0171429C12.2742857 13.6457143 12.7542857 12.2742857 13.6457143 11.2457143 14.6057143 10.2171429 16.0457143 9.73714286 17.4171429 9.80571429 18.7885714 9.73714286 20.2285714 10.2171429 21.1885714 11.2457143 22.08 12.2742857 22.56 13.6457143 22.4914286 15.0171429L22.56 19.2zM31.5428571 38.0571429L30.6514286 31.2685714 28.32 31.2685714 27.4285714 38.0571429 23.3828571 38.0571429 27.0857143 10.0114286 31.7485714 10.0114286 35.4514286 38.0571429 31.5428571 38.0571429z"/>
    <circle cx="29.554" cy="25.92" r="2.126"/>
    <path d="M67.68,15.7714286 C68.2971429,15.9771429 68.9142857,16.32 69.3257143,16.7314286 C69.7371429,17.1428571 70.1485714,17.6228571 70.4228571,18.1714286 C70.6971429,18.72 70.9028571,19.3371429 70.9714286,19.9542857 C71.1085714,20.64 71.1771429,21.2571429 71.1085714,21.9428571 C71.1085714,25.0971429 70.4228571,27.4285714 69.0514286,28.9371429 C67.68,30.4457143 65.6228571,31.2 62.8114286,31.2 L56.2285714,31.2 L56.2285714,1.71428571 L62.88,1.71428571 C65.4857143,1.71428571 67.4742857,2.4 68.7771429,3.77142857 C70.08,5.14285714 70.7657143,7.2 70.7657143,9.94285714 C70.7657143,10.56 70.6971429,11.1085714 70.56,11.7257143 C70.4228571,12.2742857 70.2171429,12.8228571 70.0114286,13.3714286 C69.7371429,13.8514286 69.3942857,14.3314286 68.9828571,14.7428571 C68.5714286,15.1542857 68.0914286,15.4285714 67.5428571,15.6342857 L67.68,15.7714286 Z M65.3485714,10.08 C65.3485714,8.91428571 65.1428571,8.16 64.7314286,7.74857143 C64.1142857,7.33714286 63.4285714,7.13142857 62.6742857,7.2 L62.0571429,7.2 L62.0571429,13.0971429 L62.8114286,13.0971429 C64.5257143,13.0971429 65.3485714,12.0685714 65.3485714,10.08 L65.3485714,10.08 Z M65.6228571,21.6685714 C65.6914286,20.7771429 65.4857143,19.8857143 65.0057143,19.1314286 C64.5257143,18.6514286 63.84,18.3771429 63.1542857,18.3771429 L62.0571429,18.3771429 L62.0571429,25.6457143 L63.0857143,25.6457143 C63.5657143,25.6457143 63.9771429,25.5771429 64.3885714,25.3028571 C64.7314286,25.0971429 65.0057143,24.7542857 65.1428571,24.4114286 C65.3485714,24 65.4857143,23.5885714 65.4857143,23.1085714 C65.5542857,22.6971429 65.6228571,22.2171429 65.6228571,21.6685714 Z"/>
    <polygon points="73.851 31.269 73.851 1.714 79.611 1.714 79.611 31.269"/>
    <polygon points="91.817 7.2 91.817 31.269 86.057 31.269 86.057 7.2 81.531 7.2 81.531 1.714 96.411 1.714 96.411 7.269 91.817 7.269"/>
    <polygon points="106.697 25.509 105.463 21.737 104.091 17.349 103.886 17.349 103.886 31.269 98.126 31.269 98.126 1.714 103.543 1.714 106.491 9.6 108.48 15.429 108.754 15.429 110.811 9.463 113.691 1.646 119.109 1.646 119.109 31.269 113.349 31.269 113.349 17.486 113.211 17.486 111.84 22.08 110.674 25.509"/>
    <path d="M130.971429,25.5085714 L126.582857,25.5085714 L125.691429,31.2685714 L119.588571,31.2685714 L125.211429,1.64571429 L132.274286,1.64571429 L137.897143,31.2685714 L131.794286,31.2685714 L130.971429,25.5085714 Z M128.091429,15.36 L127.474286,20.0914286 L130.148571,20.0914286 L129.6,15.36 L128.982857,9.39428571 L128.708571,9.39428571 L128.091429,15.36 Z"/>
    <polygon points="144.617 10.834 148.663 1.714 154.834 1.714 148.663 13.989 155.451 31.337 149.486 31.337 145.371 20.023 144.343 22.697 144.343 31.337 138.514 31.337 138.514 1.714 144.274 1.714 144.274 10.834"/>
    <polygon points="156.48 31.269 156.48 1.714 170.057 1.714 170.057 7.269 162.309 7.269 162.309 13.577 169.097 13.577 169.097 19.131 162.309 19.131 162.309 25.851 170.057 25.851 170.057 31.406"/>
    <path d="M179.314286,1.71428571 C180.48,1.71428571 181.577143,1.85142857 182.674286,2.12571429 C183.634286,2.4 184.594286,2.88 185.28,3.63428571 C186.034286,4.38857143 186.651429,5.34857143 186.994286,6.37714286 C187.405714,7.68 187.68,9.12 187.611429,10.4914286 C187.68,12.2057143 187.405714,13.8514286 186.788571,15.4285714 C186.308571,16.6628571 185.417143,17.76 184.32,18.5142857 L188.571429,31.3371429 L182.674286,31.3371429 L179.177143,19.8171429 L178.011429,19.8171429 L178.011429,31.3371429 L172.251429,31.3371429 L172.251429,1.71428571 L179.314286,1.71428571 Z M178.08,7.2 L178.08,14.1942857 L178.971429,14.1942857 C179.382857,14.1942857 179.794286,14.1257143 180.137143,14.0571429 C180.548571,13.92 180.891429,13.7828571 181.165714,13.5085714 C181.508571,13.1657143 181.714286,12.8228571 181.851429,12.4114286 C182.057143,11.7942857 182.125714,11.1771429 182.125714,10.56 C182.194286,9.66857143 181.92,8.77714286 181.302857,8.09142857 C180.754286,7.54285714 179.931429,7.26857143 179.177143,7.33714286 L178.08,7.33714286 L178.08,7.2 Z"/>
    <polygon points="151.474 38.057 151.474 46.149 149.486 46.149 149.486 38.057 147.977 38.057 147.977 36.206 152.983 36.206 152.983 38.057"/>
    <path d="M158.674286 43.7485714C158.742857 44.4342857 158.468571 45.12 158.057143 45.6685714 157.508571 46.1485714 156.822857 46.3542857 156.137143 46.2857143 154.422857 46.2857143 153.6 45.4628571 153.6 43.7485714L153.6 38.6057143C153.531429 37.92 153.805714 37.2342857 154.285714 36.6857143 155.451429 35.8628571 156.96 35.8628571 158.057143 36.6857143 158.537143 37.2342857 158.742857 37.92 158.674286 38.6057143L158.674286 43.7485714zM156.685714 38.5371429C156.754286 38.2628571 156.548571 37.9885714 156.274286 37.92 156.205714 37.92 156.205714 37.92 156.137143 37.92 156 37.92 155.862857 37.9885714 155.725714 38.0571429 155.588571 38.1942857 155.52 38.3314286 155.588571 38.5371429L155.588571 43.8171429C155.588571 44.0228571 155.657143 44.16 155.725714 44.2971429 155.862857 44.3657143 156 44.4342857 156.137143 44.4342857 156.274286 44.4342857 156.411429 44.3657143 156.548571 44.2971429 156.685714 44.16 156.754286 44.0228571 156.685714 43.8171429L156.685714 38.5371429zM161.965714 36.2057143C162.377143 36.2057143 162.72 36.2742857 163.062857 36.3428571 163.405714 36.4114286 163.68 36.6171429 163.954286 36.8228571 164.228571 37.0971429 164.434286 37.3714286 164.571429 37.7142857 164.708571 38.1257143 164.777143 38.6057143 164.777143 39.0857143 164.777143 39.6342857 164.708571 40.1828571 164.502857 40.7314286 164.297143 41.1428571 164.022857 41.4857143 163.68 41.76L165.12 46.08 163.131429 46.08 161.965714 42.1714286 161.554286 42.1714286 161.554286 46.08 159.565714 46.08 159.565714 36.2057143 161.965714 36.2057143zM161.554286 38.0571429L161.554286 40.4571429 161.828571 40.4571429C161.965714 40.4571429 162.102857 40.4571429 162.24 40.3885714 162.377143 40.32 162.514286 40.32 162.582857 40.1828571 162.72 40.0457143 162.788571 39.9771429 162.788571 39.7714286 162.857143 39.5657143 162.857143 39.36 162.857143 39.1542857 162.857143 38.88 162.788571 38.5371429 162.582857 38.3314286 162.377143 38.1257143 162.102857 38.0571429 161.828571 38.0571429L161.554286 38.0571429zM170.605714 43.7485714C170.674286 44.4342857 170.4 45.12 169.988571 45.6685714 169.44 46.1485714 168.754286 46.3542857 168.068571 46.2857143 166.354286 46.2857143 165.531429 45.4628571 165.531429 43.7485714L165.531429 38.6057143C165.462857 37.92 165.737143 37.2342857 166.217143 36.6857143 167.382857 35.8628571 168.891429 35.8628571 169.988571 36.6857143 170.468571 37.2342857 170.674286 37.92 170.605714 38.6057143L170.605714 43.7485714zM168.617143 38.5371429C168.685714 38.2628571 168.48 37.9885714 168.205714 37.92 168.137143 37.92 168.137143 37.92 168.068571 37.92 167.931429 37.92 167.794286 37.9885714 167.657143 38.0571429 167.52 38.1942857 167.451429 38.3314286 167.52 38.5371429L167.52 43.8171429C167.52 44.0228571 167.588571 44.16 167.657143 44.2971429 167.794286 44.3657143 167.931429 44.4342857 168.068571 44.4342857 168.205714 44.4342857 168.342857 44.3657143 168.48 44.2971429 168.617143 44.16 168.685714 44.0228571 168.617143 43.8171429L168.617143 38.5371429z"/>
    <polygon points="175.131 40.937 175.131 36.206 177.051 36.206 177.051 46.149 175.406 46.149 174.24 43.269 173.554 41.349 173.486 41.349 173.486 46.149 171.566 46.149 171.566 36.206 173.28 36.206 174.446 39.086"/>
    <polygon points="181.097 38.057 181.097 46.149 179.177 46.149 179.177 38.057 177.6 38.057 177.6 36.206 182.606 36.206 182.606 38.057"/>
    <path d="M188.365714,43.7485714 C188.434286,44.4342857 188.16,45.12 187.748571,45.6685714 C187.2,46.1485714 186.514286,46.3542857 185.828571,46.2857143 C184.114286,46.2857143 183.291429,45.4628571 183.291429,43.7485714 L183.291429,38.6057143 C183.222857,37.92 183.497143,37.2342857 183.977143,36.6857143 C185.142857,35.8628571 186.651429,35.8628571 187.748571,36.6857143 C188.228571,37.2342857 188.434286,37.92 188.365714,38.6057143 L188.365714,43.7485714 Z M186.377143,38.5371429 C186.445714,38.2628571 186.24,37.9885714 185.965714,37.92 C185.897143,37.92 185.897143,37.92 185.828571,37.92 C185.691429,37.92 185.554286,37.9885714 185.417143,38.0571429 C185.28,38.1942857 185.211429,38.3314286 185.28,38.5371429 L185.28,43.8171429 C185.28,44.0228571 185.348571,44.16 185.417143,44.2971429 C185.554286,44.3657143 185.691429,44.4342857 185.828571,44.4342857 C185.965714,44.4342857 186.102857,44.3657143 186.24,44.2971429 C186.377143,44.16 186.445714,44.0228571 186.377143,43.8171429 L186.377143,38.5371429 Z"/>
  </g>
</svg>
