<svg xmlns="http://www.w3.org/2000/svg" width="24" height="21" viewBox="0 0 24 21">
  <path fill="#002C7C" d="M25.995536,23.7901784 L25.995536,39.5 C25.995536,39.7232144 25.939732,39.9129464 25.8281248,40.069196 C25.7165176,40.2254464 25.5535712,40.3035712 25.3392856,40.3035712 C25.1875,40.3035712 25.0401784,40.2678568 24.8973216,40.1964288 L18.6696432,37.0758928 C18.4821432,36.9866072 18.3236608,36.8370536 18.1941968,36.627232 C18.064732,36.4174104 18,36.2098216 18,36.004464 L18,20.7366072 C18,20.5580352 18.0446432,20.4062496 18.1339288,20.2812496 C18.2232144,20.1562496 18.3526784,20.0937496 18.5223216,20.0937496 C18.6473216,20.0937496 18.8437504,20.1607144 19.1116072,20.2946424 L25.9553568,23.7232144 C25.9821432,23.75 25.995536,23.7723216 25.995536,23.7901784 Z M26.8526784,25.1428568 L34.004464,36.7410712 L26.8526784,33.1785712 L26.8526784,25.1428568 Z M42,25.3839288 L42,39.5 C42,39.7232144 41.9375,39.9040176 41.8125,40.0424104 C41.6875,40.1808032 41.5178568,40.25 41.3035712,40.25 C41.0892856,40.25 40.879464,40.191964 40.6741072,40.0758928 L34.7678568,37.129464 L42,25.3839288 Z M41.9598216,23.7767856 C41.9598216,23.8035712 40.814732,25.6763392 38.5245536,29.3950888 C36.2343752,33.1138392 34.8928568,35.2901784 34.5,35.9241072 L29.2767856,27.4330352 L33.6160712,20.375 C33.7678568,20.125 34,20 34.3125,20 C34.4375,20 34.5535712,20.0267856 34.6607144,20.0803568 L41.9062496,23.6964288 C41.941964,23.7142856 41.9598216,23.7410712 41.9598216,23.7767856 Z" transform="translate(-18 -20)"/>
</svg>
